John Skillpa, a quiet bank clerk living in tiny Peacock, Nebraska, prefers to live an invisible life. This might have to do with John's secret: he has another 
personality no one knows about, a woman who each morning does his chores and cooks him breakfast before he starts his day. Then, in a moment, everything changes.
 
http://www.imdb.com/title/tt1188113/

Subtitles (srt) : Arabic, Dutch, English, Indonesian, Romanian and Spanish.

Covers included.

John Skillpa (Cillian Murphy) is een rustige bankmedewerker met een geheim alter ego, zijn eigen vrouw, genaamd Emma. Wanneer een trein door een ongeluk in zijn 
achtertuin terechtkomt, wordt zijn geheim blootgesteld aan de buitenwereld. John moet er nu voor zorgen dit goed te praten en beweert dat Emma zijn echtgenote is.
 
http://www.moviemeter.nl/film/63063

Ondertitels (srt) : Arabisch, Nederlands, Engels, Indonesisch, Roemeens en Spaans.

Hoesjes bijgesloten.

General
Complete name                    : Peacock-AC3-5,1-DVDRip[Eng]2010.avi
Format                           : AVI
Format/Info                      : Audio Video Interleave
File size                        : 1 001 MiB
Duration                         : 1h 30mn
Overall bit rate                 : 1 543 Kbps
Writing application              : VirtualDubMod 1.5.4.1 (build 2178/release)
Writing library                  : VirtualDubMod build 2178/release

Video
ID                               : 0
Format                           : MPEG-4 Visual
Format profile                   : Simple@L3
Format settings, BVOP            : No
Format settings, QPel            : No
Format settings, GMC             : No warppoints
Format settings, Matrix          : Default (H.263)
Codec ID                         : XVID
Codec ID/Hint                    : XviD
Duration                         : 1h 30mn
Bit rate                         : 1 086 Kbps
Width                            : 624 pixels
Height                           : 336 pixels
Display aspect ratio             : 1.857
Frame rate                       : 23.976 fps
Resolution                       : 24 bits
Colorimetry                      : 4:2:0
Scan type                        : Progressive
Bits/(Pixel*Frame)               : 0.216
Stream size                      : 704 MiB (70%)
Writing library                  : XviD 1.1.2 (UTC 2006-11-01)

Audio
ID                               : 1
Format                           : AC-3
Format/Info                      : Audio Coding 3
Codec ID                         : 2000
Duration                         : 1h 30mn
Bit rate mode                    : Constant
Bit rate                         : 448 Kbps
Channel(s)                       : 6 channels
Channel positions                : Front: L C R, Surround: L R, LFE
Sampling rate                    : 48.0 KHz
Stream size                      : 291 MiB (29%)
Alignment                        : Split accross interleaves
Interleave, duration             : 42 ms (1.00 video frame)
Interleave, preload duration     : 500 ms

Brought to you by 
2Lions Team

meer zien??
Kom dan eens kijken op ons forum 
                    
http://www.2lions.ons-forum.nl

2Lions the site to be for all your Dutch MOVIES and more

******************************************

DON T HIT AND RUN Niet gelijk afhaken als de FILM binnen is blijf seeden. 

Don`t quit after you finished the download, but keep seeding

There are fake torrents from uploaders who use our team name.
Those are not ours, or members from our team.
We 2Lions-Team are not responsible for the fake posts on our name

Wij 2Lions-Team zijn niet verantwoordelijk voor die zieke FAKE posten die op onze naam worden gedaan

Please check our site !!!

to the fakers , get a life !!!